<svg width="17" height="27" viewBox="0 0 17 27" fill="none" xmlns="http://www.w3.org/2000/svg">
<path d="M0.375 27L0 23.7L4.275 11.925C4.65 12.275 5.05625 12.5687 5.49375 12.8062C5.93125 13.0437 6.4 13.225 6.9 13.35L2.775 24.675L0.375 27ZM16.125 27L13.725 24.675L9.6 13.35C10.1 13.225 10.5688 13.0437 11.0063 12.8062C11.4438 12.5687 11.85 12.275 12.225 11.925L16.5 23.7L16.125 27ZM8.25 12C7 12 5.9375 11.5625 5.0625 10.6875C4.1875 9.8125 3.75 8.75 3.75 7.5C3.75 6.525 4.03125 5.65625 4.59375 4.89375C5.15625 4.13125 5.875 3.6 6.75 3.3V0H9.75V3.3C10.625 3.6 11.3438 4.13125 11.9062 4.89375C12.4688 5.65625 12.75 6.525 12.75 7.5C12.75 8.75 12.3125 9.8125 11.4375 10.6875C10.5625 11.5625 9.5 12 8.25 12ZM8.25 9C8.675 9 9.03125 8.85625 9.31875 8.56875C9.60625 8.28125 9.75 7.925 9.75 7.5C9.75 7.075 9.60625 6.71875 9.31875 6.43125C9.03125 6.14375 8.675 6 8.25 6C7.825 6 7.46875 6.14375 7.18125 6.43125C6.89375 6.71875 6.75 7.075 6.75 7.5C6.75 7.925 6.89375 8.28125 7.18125 8.56875C7.46875 8.85625 7.825 9 8.25 9Z" fill="#95CFE7"/>
</svg>
